<?xml version="1.0" encoding="UTF-8" standalone="no"?>
<!DOCTYPE svg PUBLIC "-//W3C//DTD SVG 1.1//EN"
 "http://www.w3.org/Graphics/SVG/1.1/DTD/svg11.dtd">
<!-- Generated by graphviz version 2.43.0 (0)
 -->
<!-- Title: G Pages: 1 -->
<svg width="722pt" height="86pt"
 viewBox="0.00 0.00 722.20 86.20" xmlns="http://www.w3.org/2000/svg" xmlns:xlink="http://www.w3.org/1999/xlink">
<g id="graph0" class="graph" transform="scale(1 1) rotate(0) translate(21.6 64.6)">
<title>G</title>
<polygon fill="#111111" stroke="transparent" points="-21.6,21.6 -21.6,-64.6 700.6,-64.6 700.6,21.6 -21.6,21.6"/>
<!-- Notification/Shared/EmailStrategy.js -->
<g id="node1" class="node">
<title>Notification/Shared/EmailStrategy.js</title>
<path fill="none" stroke="#ff6c60" d="M224.33,-23C224.33,-23 7.67,-23 7.67,-23 3.83,-23 0,-19.17 0,-15.33 0,-15.33 0,-7.67 0,-7.67 0,-3.83 3.83,0 7.67,0 7.67,0 224.33,0 224.33,0 228.17,0 232,-3.83 232,-7.67 232,-7.67 232,-15.33 232,-15.33 232,-19.17 228.17,-23 224.33,-23"/>
<text text-anchor="middle" x="116" y="-7.8" font-family="Arial" font-size="14.00" fill="#ff6c60">Notification/Shared/EmailStrategy.js</text>
</g>
<!-- Shared/Presentation/Shared/RequestContext.js -->
<g id="node2" class="node">
<title>Shared/Presentation/Shared/RequestContext.js</title>
<path fill="none" stroke="#ff6c60" d="M561.33,-43C561.33,-43 275.67,-43 275.67,-43 271.83,-43 268,-39.17 268,-35.33 268,-35.33 268,-27.67 268,-27.67 268,-23.83 271.83,-20 275.67,-20 275.67,-20 561.33,-20 561.33,-20 565.17,-20 569,-23.83 569,-27.67 569,-27.67 569,-35.33 569,-35.33 569,-39.17 565.17,-43 561.33,-43"/>
<text text-anchor="middle" x="418.5" y="-27.8" font-family="Arial" font-size="14.00" fill="#ff6c60">Shared/Presentation/Shared/RequestContext.js</text>
</g>
<!-- Notification/Shared/EmailStrategy.js&#45;&gt;Shared/Presentation/Shared/RequestContext.js -->
<g id="edge1" class="edge">
<title>Notification/Shared/EmailStrategy.js&#45;&gt;Shared/Presentation/Shared/RequestContext.js</title>
<path fill="none" stroke="#757575" d="M232.32,-19.18C240.71,-19.73 249.25,-20.3 257.83,-20.87"/>
<polygon fill="#757575" stroke="#757575" points="257.71,-24.37 267.92,-21.54 258.17,-17.39 257.71,-24.37"/>
</g>
<!-- register.js -->
<g id="node3" class="node">
<title>register.js</title>
<path fill="none" stroke="#ff6c60" d="M671.33,-23C671.33,-23 612.67,-23 612.67,-23 608.83,-23 605,-19.17 605,-15.33 605,-15.33 605,-7.67 605,-7.67 605,-3.83 608.83,0 612.67,0 612.67,0 671.33,0 671.33,0 675.17,0 679,-3.83 679,-7.67 679,-7.67 679,-15.33 679,-15.33 679,-19.17 675.17,-23 671.33,-23"/>
<text text-anchor="middle" x="642" y="-7.8" font-family="Arial" font-size="14.00" fill="#ff6c60">register.js</text>
</g>
<!-- Shared/Presentation/Shared/RequestContext.js&#45;&gt;register.js -->
<g id="edge2" class="edge">
<title>Shared/Presentation/Shared/RequestContext.js&#45;&gt;register.js</title>
<path fill="none" stroke="#757575" d="M547.06,-19.98C564.09,-18.44 580.57,-16.96 594.85,-15.67"/>
<polygon fill="#757575" stroke="#757575" points="595.19,-19.15 604.83,-14.77 594.56,-12.18 595.19,-19.15"/>
</g>
<!-- register.js&#45;&gt;Notification/Shared/EmailStrategy.js -->
<g id="edge3" class="edge">
<title>register.js&#45;&gt;Notification/Shared/EmailStrategy.js</title>
<path fill="none" stroke="#757575" d="M604.8,-11.5C531.2,-11.5 361.04,-11.5 242.54,-11.5"/>
<polygon fill="#757575" stroke="#757575" points="242.32,-8 232.32,-11.5 242.32,-15 242.32,-8"/>
</g>
</g>
</svg>
