<svg width="838" height="396" viewBox="0 0 838 396" fill="none" xmlns="http://www.w3.org/2000/svg">
<path fill-rule="evenodd" clip-rule="evenodd" d="M53.0002 89.5V287H0.50017V26C0.50017 26 -0.999902 10.68 15 3.00003C31 -4.68 44.0002 5.49997 44.0002 5.49997L233 202V4L499 5.49997V55H292V223.5C292 223.5 292 232.572 297.5 236.5C304.5 241.5 312.5 240.5 312.5 240.5H499L535 200.5L508.5 174H311V120.5H517L563 170.5L609.5 120.5H787.5C787.5 120.5 806 119 821.5 138C837 157 837 174 837 174V248.5C837 248.5 839 264.5 824 284.5C809 304.5 782 304.5 782 304.5H694.5V260H775C775 260 785 259 789 254.5C793 250 793 240.5 793 240.5V177.5C793 177.5 793 171 787.5 167C782 163 775 163.5 775 163.5H691C691 163.5 684 164 680.5 169C677 174 677 177.5 677 177.5V396H633V294H618.5L563 234L507 294L254 291.5L243 287L53.0002 89.5ZM641 149.5L592 202L632 246V181C632 181 632 170.5 633.5 165.5C635 160.5 641 149.5 641 149.5Z" fill="#101010"/>
</svg>
